HIERARCHY
ROOT pelvis
{
	OFFSET 0.000000 0.000000 0.000000
	CHANNELS 6 Xposition Yposition Zposition Zrotation Xrotation Yrotation
	JOINT lfemur
	{
		OFFSET 11.446000 0.000000 0.000000
		CHANNELS 3 Zrotation Xrotation Yrotation
		JOINT ltibia
		{
			OFFSET 0.000000 -42.030400 0.000000
			CHANNELS 3 Zrotation Xrotation Yrotation
			JOINT lfoot
			{
				OFFSET 0.000000 -39.930200 0.000000
				CHANNELS 3 Zrotation Xrotation Yrotation
				JOINT ltoes
				{
					OFFSET 0.000000 0.000000 11.775800
					CHANNELS 3 Zrotation Xrotation Yrotation
					End Site
					{
					    OFFSET 0.000000 0.000000 5.000000
					}
				}
			}
		}
	}
	JOINT rfemur
	{
		OFFSET -11.446000 0.000000 0.000000
		CHANNELS 3 Zrotation Xrotation Yrotation
		JOINT rtibia
		{
			OFFSET 0.000000 -42.030400 0.000000
			CHANNELS 3 Zrotation Xrotation Yrotation
			JOINT rfoot
			{
				OFFSET 0.000000 -39.930200 0.000000
				CHANNELS 3 Zrotation Xrotation Yrotation
				JOINT rtoes
				{
					OFFSET 0.000000 0.000000 11.775800
					CHANNELS 3 Zrotation Xrotation Yrotation
					End Site
					{
					    OFFSET 0.000000 0.000000 5.000000
					}
				}
			}
		}
	}
	JOINT thorax
	{
		OFFSET 0.000000 11.255600 -5.000000
		CHANNELS 3 Zrotation Xrotation Yrotation
		JOINT head
		{
			OFFSET 0.000000 43.799300 0.000000
			CHANNELS 3 Zrotation Xrotation Yrotation
			End Site
			{
			    OFFSET 0.000000 5.000000 0.000000
			}
		}
		JOINT lclavicle
		{
			OFFSET 0.000000 39.863000 0.000000
			CHANNELS 3 Zrotation Xrotation Yrotation
			JOINT lhumerus
			{
				OFFSET 17.380600 4.958300 0.000000
				CHANNELS 3 Zrotation Xrotation Yrotation
				JOINT lradius
				{
					OFFSET 0.000000 -27.561300 0.000000
					CHANNELS 3 Zrotation Xrotation Yrotation
					JOINT lhand
					{
						OFFSET 0.000000 -26.933000 0.000000
						CHANNELS 3 Zrotation Xrotation Yrotation
						End Site
						{
						    OFFSET 0.000000 -5.000000 0.000000
						}
					}
				}
			}
		}
		JOINT rclavicle
		{
			OFFSET 0.000000 39.863000 0.000000
			CHANNELS 3 Zrotation Xrotation Yrotation
			JOINT rhumerus
			{
				OFFSET -17.380600 4.958300 0.000000
				CHANNELS 3 Zrotation Xrotation Yrotation
				JOINT rradius
				{
					OFFSET 0.000000 -27.561300 0.000000
					CHANNELS 3 Zrotation Xrotation Yrotation
					JOINT rhand
					{
						OFFSET 0.000000 -26.933000 0.000000
						CHANNELS 3 Zrotation Xrotation Yrotation
						End Site
						{
						    OFFSET 0.000000 -5.000000 0.000000
						}
					}
				}
			}
		}
	}
}
MOTION
Frames:	16
Frame Time:	0.0333333
-214.699 89.3691 51.7354 0.419392 0.556127 92.1211 -2.5618 -1.14229 1.02175 1.2507 10.6764 16.5314 4.55405 3.1464 -0.0112333 1.19271e-015 -5 -0 1.12765 0.845073 -1.25053 -1.03899 10.824 -11.6823 -1.81448 3.6297 -0.146088 -3.57812e-015 -5 -0 -3.7832 -3.55444 -1.07595 -0.435814 14.9864 -1.98909 1.59028e-015 -6.58474e-016 -3.97569e-016 39.703 -6.94184 66.448 3.47971 0.0173896 -93.0699 5.92896 -8.62883 -9.21237 1.59028e-015 -6.58474e-016 -3.97569e-016 -32.8512 -0.909739 -35.99 7.01171 -5.85421 49.6807 -0.862324 -2.80896 9.87265 
-214.674 89.3693 51.7409 0.44651 0.516044 92.2819 -2.47881 -1.14569 1.089 1.2207 10.74 16.2927 4.60086 3.10506 -0.0105139 2.90229e-015 -5 -3.1927e-015 1.1893 1.01465 -1.234 -1.02047 10.6031 -11.8652 -1.8049 3.71133 -0.145788 -1.45115e-015 -5 1.59635e-015 -3.81637 -3.5685 -1.15384 -0.475915 15.0432 -2.10791 7.95139e-016 -1.46604e-015 -1.98785e-016 39.8149 -6.89332 66.2686 3.37596 -0.00250313 -93.0353 5.77346 -8.57061 -9.23382 7.95139e-016 -1.46604e-015 -1.98785e-016 -32.8358 -0.797206 -36.299 6.7042 -5.77381 49.9276 -0.484052 -3.65551 9.89634 
-214.654 89.3693 51.7459 0.446138 0.46672 92.4344 -2.39671 -1.16091 1.14712 1.19084 10.7574 16.0874 4.65232 3.06467 -0.0105395 4.25396e-015 -5 3.1927e-015 1.25017 1.14779 -1.21902 -0.995672 10.393 -12.0399 -1.80163 3.78631 -0.145781 -1.39149e-015 -5 -0 -3.80175 -3.64701 -1.22138 -0.604086 15.1346 -2.1897 -2.42248e-032 -3.49116e-015 -3.97569e-016 39.9553 -6.81693 66.103 3.31372 -0.00255191 -92.9597 5.55928 -8.57202 -9.25969 -2.42248e-032 -3.49116e-015 -3.97569e-016 -32.8864 -0.664456 -36.6132 6.38953 -5.68753 50.3463 -0.229009 -4.25392 9.915 
-214.659 89.3692 51.7369 0.411831 0.44677 92.4506 -2.38564 -1.19256 1.14503 1.18958 10.7312 16.0922 4.65328 3.05883 -0.0106145 2.78262e-016 -5 3.1927e-015 1.25809 1.11908 -1.21776 -0.980674 10.3775 -12.0618 -1.79967 3.79182 -0.145764 2.94203e-015 -5 -1.59635e-015 -3.7277 -3.7385 -1.20195 -0.768861 15.1711 -2.1433 8.36228e-033 1.20513e-015 -3.97569e-016 39.9204 -6.75898 66.0916 3.39107 -0.135499 -92.8226 5.42355 -8.60555 -9.27208 8.36228e-033 1.20513e-015 -3.97569e-016 -33.0016 -0.602333 -36.6312 6.3434 -5.69688 50.5571 -0.36605 -3.92908 9.90597 
-214.676 89.3692 51.7222 0.397297 0.458751 92.4189 -2.41921 -1.21642 1.11981 1.20061 10.7404 16.1541 4.62336 3.0783 -0.0107337 -2.26611e-015 -5 -3.1927e-015 1.22783 1.05463 -1.23164 -0.974695 10.4492 -12.0186 -1.79877 3.77083 -0.145744 1.96802e-015 -5 -4.78906e-015 -3.70638 -3.70164 -1.13683 -0.847527 15.0838 -2.05159 -3.97569e-016 1.70209e-015 1.98785e-016 39.8798 -6.85594 66.1973 3.49084 -0.0769522 -92.6248 5.59664 -8.44432 -9.26019 -3.97569e-016 1.70209e-015 1.98785e-016 -33.0728 -0.609216 -36.5158 6.42891 -5.77488 50.3779 -0.485658 -3.51828 9.89633 
-214.683 89.3694 51.7103 0.431844 0.481334 92.4505 -2.45061 -1.2029 1.10149 1.21098 10.7787 16.1287 4.60968 3.09765 -0.0108921 -6.36183e-016 -5 6.38541e-015 1.19749 1.07881 -1.25907 -0.966816 10.4662 -12.0261 -1.80869 3.76588 -0.145729 -1.88845e-015 -5 -0 -3.79687 -3.53741 -1.10589 -0.751859 15.0017 -1.94986 -3.97569e-016 9.44227e-016 -0 39.7743 -7.05249 66.3178 3.55062 -0.0829804 -92.4125 5.85779 -8.15902 -9.24319 -3.97569e-016 9.44227e-016 -0 -32.9897 -0.671 -36.4348 6.515 -5.8137 50.1247 -0.447905 -3.54042 9.89916 
-214.684 89.3695 51.7019 0.475892 0.483256 92.532 -2.462 -1.17617 1.07899 1.23086 10.7953 16.0672 4.63045 3.09449 -0.0110845 3.06125e-015 -5 3.1927e-015 1.19343 1.14727 -1.28398 -0.958738 10.4365 -12.0863 -1.81288 3.76822 -0.145716 -1.59046e-016 -5 1.59635e-015 -3.90073 -3.42926 -1.12936 -0.532987 15.1655 -1.81587 7.95139e-016 -2.00027e-015 -3.97569e-016 39.6191 -7.25409 66.4641 3.63128 -0.00228122 -92.4551 6.09981 -8.1252 -9.21759 7.95139e-016 -2.00027e-015 -3.97569e-016 -32.737 -0.810171 -36.3505 6.60018 -5.74206 50.1345 -0.515124 -3.52297 9.89437 
-214.695 89.3694 51.6912 0.473759 0.465098 92.555 -2.47133 -1.20089 1.04163 1.26164 10.8099 16.096 4.65382 3.07268 -0.011306 -1.82889e-015 -5 6.38541e-015 1.20391 1.12977 -1.28306 -0.955625 10.4613 -12.1089 -1.78257 3.75575 -0.145703 -1.7887e-016 -5 -3.1927e-015 -3.90614 -3.47434 -1.14984 -0.339396 15.5668 -1.71363 0 6.08778e-016 -0 39.1361 -7.27549 66.5423 3.73285 -0.0862801 -92.7583 6.02129 -8.46281 -9.20841 0 6.08778e-016 -0 -32.3879 -1.04285 -36.2386 6.69574 -5.60952 50.4204 -0.733367 -3.16644 9.8794 
-214.716 89.3689 51.6754 0.426771 0.463453 92.4714 -2.50071 -1.28227 1.00764 1.28138 10.8712 16.2142 4.62934 3.06137 -0.0115521 3.18055e-015 -5 -0 1.19517 1.0106 -1.25491 -0.979384 10.5594 -12.0434 -1.72712 3.73651 -0.14569 -3.75699e-015 -5 -3.1927e-015 -3.86206 -3.55282 -1.11778 -0.242679 15.9489 -1.72919 -1.16382e-033 -3.35449e-016 -1.98785e-016 38.3311 -7.18861 66.5278 3.75952 -0.124895 -92.9991 5.73899 -8.76882 -9.22641 -1.16382e-033 -3.35449e-016 -1.98785e-016 -31.9886 -1.30808 -36.1466 6.8319 -5.52274 50.7766 -0.81035 -2.96052 9.87491 
-214.73 89.3684 51.6591 0.391261 0.49071 92.3597 -2.54435 -1.33715 0.9916 1.28048 10.9366 16.3125 4.56411 3.07604 -0.011818 3.06125e-015 -5 3.1927e-015 1.16378 0.909865 -1.22622 -1.0215 10.6445 -11.9477 -1.68672 3.73146 -0.14568 3.14082e-015 -5 -1.59635e-015 -3.89328 -3.54704 -1.05967 -0.163082 16.2459 -1.7811 -3.97569e-016 4.72114e-016 -0 37.3001 -7.19527 66.5829 3.76977 -0.0729399 -92.9539 5.52067 -8.7229 -9.25622 -3.97569e-016 4.72114e-016 -0 -31.457 -1.5126 -36.0274 7.09879 -5.50837 51.1989 -0.765017 -3.10028 9.87718 
-214.732 89.3678 51.6462 0.396922 0.509487 92.3174 -2.57113 -1.32104 0.982666 1.27921 10.9342 16.3412 4.54314 3.08596 -0.0120986 -9.14446e-016 -5 3.1927e-015 1.14842 0.894482 -1.2139 -1.05365 10.6753 -11.9134 -1.67362 3.733 -0.145673 2.18663e-015 -5 -0 -3.98858 -3.5213 -1.03087 -0.016557 16.7071 -1.72423 3.97569e-016 -2.44754e-015 1.98785e-016 36.0845 -7.38807 66.8915 3.94357 -0.0676257 -92.9252 5.53633 -8.53276 -9.26373 3.97569e-016 -2.44754e-015 1.98785e-016 -30.6736 -1.65667 -35.8275 7.45357 -5.45595 51.8176 -0.942668 -3.00901 9.86517 
-214.737 89.3608 51.636 0.408783 0.486423 92.3363 -2.56121 -1.30592 0.975397 1.28871 10.9039 16.3478 4.611 3.05219 -0.0123884 7.95139e-016 -5 -0 1.17504 0.892562 -1.20015 -1.06652 10.7035 -11.9512 -1.66853 3.72394 -0.145665 -3.67752e-015 -5 -0 -4.01294 -3.5888 -1.03179 0.143597 17.5076 -1.61499 0 0 -0 34.6862 -7.64737 67.3398 4.22582 -0.025596 -93.3102 5.74879 -8.47023 -9.24161 0 0 -0 -29.6654 -1.79151 -35.6391 7.71856 -5.28082 52.6282 -1.33978 -2.4599 9.84217 
-214.745 89.3536 51.6256 0.392302 0.444862 92.3347 -2.53048 -1.34843 0.986504 1.27946 10.9283 16.3636 4.67994 2.99383 -0.0126829 2.10715e-015 -5 -3.1927e-015 1.218 0.856542 -1.16572 -1.07902 10.7286 -11.9883 -1.66502 3.72108 -0.14566 -5.60571e-015 -5 -1.59635e-015 -3.91417 -3.74363 -1.01717 0.210106 18.5918 -1.63549 3.97569e-016 -1.21756e-015 -3.97569e-016 32.9541 -7.7615 67.5929 4.36506 -0.00315174 -93.9453 5.83546 -8.44427 -9.23265 3.97569e-016 -1.21756e-015 -3.97569e-016 -28.6013 -1.87705 -35.5041 7.91207 -5.05415 53.4652 -1.56524 -2.12375 9.83096 
-214.743 89.3508 51.6119 0.376222 0.428083 92.2868 -2.51273 -1.38081 1.01548 1.26009 10.98 16.3707 4.65915 2.96492 -0.0129776 5.16876e-016 -5 -3.1927e-015 1.23542 0.851594 -1.13071 -1.10285 10.6939 -11.9719 -1.66448 3.74555 -0.145659 -2.08724e-015 -5 -0 -3.77512 -3.91873 -0.972855 0.18052 19.9858 -1.79811 -7.95139e-016 3.926e-015 -3.97569e-016 30.8771 -7.71406 67.645 4.35808 -0.0596985 -94.5269 5.7151 -8.35735 -9.25111 -7.95139e-016 3.926e-015 -3.97569e-016 -27.5749 -1.84803 -35.2841 8.24304 -4.85509 54.2144 -1.49533 -2.44102 9.83184 
-214.72 89.3488 51.593 0.398122 0.439723 92.245 -2.52947 -1.33086 1.02376 1.24965 10.9739 16.384 4.61537 2.97209 -0.0132679 2.22646e-015 -5 -6.38541e-015 1.21932 0.910461 -1.13115 -1.12528 10.6375 -11.9248 -1.65245 3.76701 -0.145659 -5.48649e-015 -5 3.1927e-015 -3.66482 -4.09812 -0.937267 0.140157 21.8718 -1.95853 3.70699e-033 -1.06847e-015 1.98785e-016 28.7067 -7.6524 67.8752 4.51005 -0.095502 -95.2226 5.72033 -8.4603 -9.2453 3.70699e-033 -1.06847e-015 1.98785e-016 -26.5052 -1.80173 -34.9328 8.6743 -4.58925 54.7967 -1.33901 -2.87211 9.83746 
-214.7 89.3473 51.5736 0.44217 0.458928 92.2474 -2.57073 -1.2484 0.99411 1.26135 10.9215 16.4315 4.64912 2.97526 -0.0135484 3.45882e-015 -5 3.1927e-015 1.19279 0.940199 -1.16005 -1.13814 10.698 -11.9013 -1.62337 3.72745 -0.14565 -1.15297e-015 -5 1.59635e-015 -3.58742 -4.30513 -0.950801 0.155458 24.2664 -2.06971 3.97569e-016 7.20594e-016 -3.97569e-016 26.6313 -7.60064 68.4119 4.93358 -0.119702 -96.2405 5.9884 -8.93097 -9.18897 3.97569e-016 7.20594e-016 -3.97569e-016 -25.2924 -1.8727 -34.57 9.00221 -4.13144 55.4276 -1.26055 -2.74975 9.84445 
